# xmcd
#
# Track frame offsets: 
#        150
#        5833
#        26892
#        43131
#        60025
#        68675
#        98799
#        119708
#        132435
#        143746
#        148393
#        172472
#        189697
#        208635
#        228135
#        245612
#        250142
#        267615
#
# Disc length: 3812 seconds
#
# Revision: 0
# Processed by: cddbd v1.5.2PL0 Copyright (c) Steve Scherf et al.
# Submitted via: ExactAudioCopy v0.99pb4
#
DISCID=1d0ee212
DTITLE=Various Artist - Indian Rezervation - Blues And More - CD 1
DYEAR=2009
DGENRE=Blues
TTITLE0=Aaron White - Heart Beat
TTITLE1=Wayne Lavallee - Trail Of Tears
TTITLE2=Keith Secola - Wailing Blues
TTITLE3=Derek Miller - Shot O' Cocaine
TTITLE4=Art Napoleon - Cree Sunrise
TTITLE5=A. Paul Ortega - Chicago
TTITLE6=George Leach - Dizzy Dog
TTITLE7=Jaques and The Shakey Boys - God And The Devil
TTITLE8=Art Napoleon - Bushman Blues
TTITLE9=Aaron White - Two Warriors Crossing
TTITLE10=Wayne Lavallee - Shed Allot Of Light
TTITLE11=Elizabeth Hill - The Grass Looks Greener In A White Man's Yar
TTITLE11=d
TTITLE12=Murray Porter - Heart Of The Eagle
TTITLE13=Julian B (feat. Cary Morin) - In Da' City
TTITLE14=Leilani - Go Back
TTITLE15=Asani - Rez Sister
TTITLE16=Slidin' Clyde Roulette - Redman
TTITLE17=Aaron White and John Densmore - Heart Beat
EXTD=
EXTT0=
EXTT1=
EXTT2=
EXTT3=
EXTT4=
EXTT5=
EXTT6=
EXTT7=
EXTT8=
EXTT9=
EXTT10=
EXTT11=
EXTT12=
EXTT13=
EXTT14=
EXTT15=
EXTT16=
EXTT17=
PLAYORDER=
